<svg width="233" height="153" viewBox="0 0 233 153" fill="none" xmlns="http://www.w3.org/2000/svg">
<g filter="url(#filter0_i_30_825)">
<path fill-rule="evenodd" clip-rule="evenodd" d="M166.381 76.8917C161.289 79.2033 155.635 80.4904 149.682 80.4904C127.31 80.4904 109.174 62.3158 109.174 39.8963C109.174 27.569 114.657 16.525 123.313 9.08004C122.045 8.98381 120.764 8.93481 119.472 8.93481C91.7916 8.93481 69.352 31.422 69.352 59.1613C69.352 86.9007 91.7916 109.388 119.472 109.388C140.925 109.388 159.229 95.8816 166.381 76.8917Z" fill="#4107E7"/>
</g>
<g opacity="0.6" filter="url(#filter1_f_30_825)">
<ellipse cx="102.025" cy="75.3062" rx="21.9741" ry="22.8302" transform="rotate(22.5606 102.025 75.3062)" fill="#B28AE3"/>
<ellipse cx="137.888" cy="68.5737" rx="30.2501" ry="31.3916" transform="rotate(22.5606 137.888 68.5737)" fill="#B28AE3"/>
<ellipse cx="180.075" cy="81.4706" rx="21.9741" ry="18.5536" transform="rotate(-14.8121 180.075 81.4706)" fill="#B28AE3"/>
<ellipse cx="76.9966" cy="72.3247" rx="25.684" ry="26.8255" transform="rotate(22.5606 76.9966 72.3247)" fill="#B28AE3"/>
<ellipse cx="44.8786" cy="78.6073" rx="14.5543" ry="8.37771" transform="rotate(-21.7128 44.8786 78.6073)" fill="#B28AE3"/>
</g>
<defs>
<filter id="filter0_i_30_825" x="63.6444" y="8.93481" width="102.736" height="107.873" filterUnits="userSpaceOnUse" color-interpolation-filters="sRGB">
<feFlood flood-opacity="0" result="BackgroundImageFix"/>
<feBlend mode="normal" in="SourceGraphic" in2="BackgroundImageFix" result="shape"/>
<feColorMatrix in="SourceAlpha" type="matrix" values="0 0 0 0 0 0 0 0 0 0 0 0 0 0 0 0 0 0 127 0" result="hardAlpha"/>
<feOffset dx="-5.70756" dy="7.41983"/>
<feGaussianBlur stdDeviation="6.84907"/>
<feComposite in2="hardAlpha" operator="arithmetic" k2="-1" k3="1"/>
<feColorMatrix type="matrix" values="0 0 0 0 0.98 0 0 0 0 0 0 0 0 0 1 0 0 0 0.9 0"/>
<feBlend mode="normal" in2="shape" result="effect1_innerShadow_30_825"/>
</filter>
<filter id="filter1_f_30_825" x="0.18248" y="6.51842" width="232.485" height="124.574" filterUnits="userSpaceOnUse" color-interpolation-filters="sRGB">
<feFlood flood-opacity="0" result="BackgroundImageFix"/>
<feBlend mode="normal" in="SourceGraphic" in2="BackgroundImageFix" result="shape"/>
<feGaussianBlur stdDeviation="15.4104" result="effect1_foregroundBlur_30_825"/>
</filter>
</defs>
</svg>
