<svg width="163" height="139" viewBox="0 0 163 139" fill="none" xmlns="http://www.w3.org/2000/svg">
<g filter="url(#filter0_bdi_30_649)">
<path fill-rule="evenodd" clip-rule="evenodd" d="M114.654 100.784H45.0213V100.777C44.8316 100.782 44.6413 100.784 44.4506 100.784C30.2657 100.784 18.7665 89.2845 18.7665 75.0996C18.7665 65.4732 24.0624 57.0838 31.8996 52.6858C31.8958 52.4523 31.8939 52.2183 31.8939 51.984C31.8939 28.5001 50.9314 9.46265 74.4152 9.46265C94.672 9.46265 111.62 23.6275 115.896 42.5925C131.396 43.2434 143.762 56.0151 143.762 71.675C143.762 86.9829 131.946 99.5309 116.937 100.695V100.784H114.654Z" fill="url(#paint0_radial_30_649)" fill-opacity="0.77"/>
</g>
<path fill-rule="evenodd" clip-rule="evenodd" d="M98.802 119.956C99.3035 120.457 100.117 120.457 100.618 119.956C101.12 119.454 101.12 118.641 100.618 118.14L95.3905 112.912L100.955 112.912C101.665 112.912 102.24 112.337 102.24 111.628C102.24 110.919 101.665 110.344 100.955 110.344L92.8221 110.344L91.3952 108.917H92.3941C93.1033 108.917 93.6783 108.342 93.6783 107.633C93.6783 106.923 93.1033 106.348 92.3941 106.348H88.8268L84.6888 102.21H90.2926L92.6275 104.545C93.129 105.047 93.9422 105.047 94.4437 104.545C94.9452 104.044 94.9452 103.231 94.4437 102.729L93.9248 102.21L96.6206 102.21L102.375 107.441C102.899 107.918 103.712 107.88 104.189 107.355C104.666 106.83 104.627 106.018 104.102 105.541L100.439 102.21L107.091 102.21C107.8 102.21 108.375 101.635 108.375 100.926C108.375 100.217 107.8 99.642 107.091 99.642L99.9178 99.642L104.147 95.4133C104.648 94.9118 104.648 94.0987 104.147 93.5972C103.645 93.0957 102.832 93.0957 102.33 93.5972L96.2855 99.642H93.6395L94.4437 98.8378C94.9452 98.3363 94.9452 97.5232 94.4437 97.0217C93.9422 96.5202 93.129 96.5202 92.6275 97.0217L90.0072 99.642L84.0405 99.642L88.9941 94.6885L92.4346 94.6885C93.1439 94.6885 93.7188 94.1135 93.7188 93.4043C93.7188 92.695 93.1439 92.1201 92.4346 92.1201H91.5625L92.7268 90.9558L100.93 90.5651C101.639 90.5314 102.186 89.9297 102.152 89.2213C102.118 88.5128 101.517 87.9659 100.808 87.9996L95.4266 88.2559L100.722 82.9606C101.224 82.459 101.224 81.6459 100.722 81.1444C100.22 80.6429 99.4074 80.6429 98.9059 81.1444L93.6783 86.372L93.6783 80.8071C93.6783 80.0978 93.1033 79.5229 92.3941 79.5229C91.6848 79.5229 91.1099 80.0978 91.1099 80.8071L91.1099 88.9404L89.683 90.3673V89.3684C89.683 88.6592 89.108 88.0842 88.3988 88.0842C87.6895 88.0842 87.1146 88.6592 87.1146 89.3684L87.1146 92.9357L82.9766 97.0737L82.9766 91.4699L85.3116 89.135C85.8131 88.6335 85.8131 87.8204 85.3116 87.3189C84.8101 86.8173 83.9969 86.8173 83.4954 87.3189L82.9766 87.8377L82.9766 85.1419L88.2075 79.3879C88.6846 78.8631 88.6459 78.0509 88.1211 77.5738C87.5963 77.0968 86.7841 77.1354 86.307 77.6602L82.9766 81.3237L82.9766 74.6715C82.9766 73.9622 82.4017 73.3873 81.6924 73.3873C80.9832 73.3873 80.4082 73.9622 80.4082 74.6715L80.4082 81.8447L76.1795 77.616C75.678 77.1145 74.8649 77.1145 74.3633 77.616C73.8618 78.1175 73.8618 78.9306 74.3633 79.4321L80.4082 85.477L80.4082 88.123L79.604 87.3189C79.1025 86.8173 78.2894 86.8173 77.7879 87.3189C77.2864 87.8204 77.2864 88.6335 77.7879 89.135L80.4082 91.7553L80.4082 97.9298L73.7424 91.264V87.6156C73.7424 86.9064 73.1674 86.3314 72.4582 86.3314C71.7489 86.3314 71.174 86.9064 71.174 87.6156L71.174 88.6956L70.0486 87.5702L69.619 78.549C69.5853 77.8406 68.9836 77.2936 68.2752 77.3274C67.5668 77.3611 67.0198 77.9628 67.0535 78.6712L67.3487 84.8703L64.0936 81.6152C63.5921 81.1137 62.779 81.1137 62.2775 81.6152C61.776 82.1167 61.776 82.9298 62.2775 83.4313L64.6474 85.8012L59.861 85.8012C59.1517 85.8012 58.5768 86.3762 58.5768 87.0854C58.5768 87.7947 59.1517 88.3696 59.861 88.3696L67.2158 88.3696L69.2134 90.3672H68.4223C67.7131 90.3673 67.1381 90.9422 67.1381 91.6515C67.1381 92.3607 67.7131 92.9357 68.4223 92.9357L71.7818 92.9357L78.4882 99.642L69.6677 99.642L66.4766 96.4509C65.9751 95.9494 65.162 95.9494 64.6605 96.4509C64.159 96.9525 64.159 97.7656 64.6605 98.2671L66.0354 99.642H63.9961L57.3003 93.555C56.7755 93.0779 55.9633 93.1166 55.4862 93.6414C55.0092 94.1662 55.0478 94.9784 55.5726 95.4555L60.1779 99.642H55.4376C54.7284 99.642 54.1534 100.217 54.1534 100.926C54.1534 101.635 54.7284 102.21 55.4376 102.21H58.901L55.5284 105.583C55.0269 106.085 55.0269 106.898 55.5284 107.399C56.0299 107.901 56.843 107.901 57.3445 107.399L62.5333 102.21H64.6113C64.1596 102.715 64.1759 103.49 64.6605 103.975C65.162 104.476 65.9751 104.476 66.4766 103.975L68.2408 102.21L77.8398 102.21L72.0301 108.02H68.3818C67.6725 108.02 67.0976 108.595 67.0976 109.304C67.0976 110.014 67.6725 110.589 68.3818 110.589L69.4617 110.589L68.3364 111.714L59.3152 112.143C58.6068 112.177 58.0598 112.779 58.0935 113.487C58.1273 114.196 58.7289 114.743 59.4374 114.709L65.6365 114.414L62.3814 117.669C61.8799 118.17 61.8799 118.984 62.3814 119.485C62.8829 119.987 63.696 119.987 64.1975 119.485L66.5674 117.115V121.902C66.5674 122.611 67.1423 123.186 67.8516 123.186C68.5608 123.186 69.1358 122.611 69.1358 121.902L69.1358 114.547L71.1334 112.549V113.34C71.1334 114.049 71.7084 114.624 72.4176 114.624C73.1269 114.624 73.7018 114.049 73.7018 113.34L73.7018 109.981L80.4082 103.274V112.095L77.2171 115.286C76.7156 115.787 76.7156 116.601 77.2171 117.102C77.7186 117.604 78.5317 117.604 79.0333 117.102L80.4082 115.727L80.4082 117.766L74.3212 124.462C73.8441 124.987 73.8828 125.799 74.4076 126.276C74.9324 126.753 75.7446 126.715 76.2216 126.19L80.4082 121.585L80.4082 126.325C80.4082 127.034 80.9832 127.609 81.6924 127.609C82.4017 127.609 82.9766 127.034 82.9766 126.325V122.862L86.3492 126.234C86.8507 126.736 87.6638 126.736 88.1654 126.234C88.6669 125.733 88.6669 124.919 88.1654 124.418L82.9766 119.229V117.151C83.4808 117.603 84.2563 117.587 84.7408 117.102C85.2423 116.601 85.2423 115.787 84.7408 115.286L82.9766 113.522L82.9766 104.13L87.074 108.228V111.668C87.074 112.378 87.649 112.953 88.3582 112.953C89.0675 112.953 89.6424 112.378 89.6424 111.668V110.796L90.8067 111.961L91.1974 120.164C91.2311 120.873 91.8328 121.42 92.5412 121.386C93.2497 121.352 93.7966 120.751 93.7629 120.042L93.5066 114.66L98.802 119.956Z" fill="url(#paint1_radial_30_649)"/>
<path fill-rule="evenodd" clip-rule="evenodd" d="M140.271 103.387C140.472 103.587 140.797 103.587 140.998 103.387C141.199 103.186 141.199 102.86 140.998 102.659L138.904 100.565L141.133 100.565C141.417 100.565 141.648 100.335 141.648 100.051C141.648 99.7669 141.417 99.5366 141.133 99.5366L137.876 99.5366L137.304 98.9651H137.704C137.988 98.9651 138.219 98.7348 138.219 98.4507C138.219 98.1667 137.988 97.9364 137.704 97.9364L136.275 97.9364L134.618 96.2789L136.863 96.2789L137.798 97.2142C137.999 97.4151 138.324 97.4151 138.525 97.2142C138.726 97.0133 138.726 96.6876 138.525 96.4868L138.317 96.2789H139.397L141.702 98.3741C141.912 98.5652 142.237 98.5497 142.428 98.3395C142.619 98.1293 142.604 97.804 142.394 97.6129L140.926 96.2789L143.591 96.2789C143.875 96.2789 144.105 96.0487 144.105 95.7646C144.105 95.4805 143.875 95.2502 143.591 95.2502L140.718 95.2502L142.412 93.5565C142.612 93.3556 142.612 93.0299 142.412 92.829C142.211 92.6282 141.885 92.6282 141.684 92.829L139.263 95.2502H138.203L138.525 94.9281C138.726 94.7272 138.726 94.4015 138.525 94.2007C138.324 93.9998 137.999 93.9998 137.798 94.2007L136.748 95.2502L134.358 95.2502L136.342 93.2661L137.72 93.2661C138.005 93.2661 138.235 93.0358 138.235 92.7518C138.235 92.4677 138.005 92.2374 137.72 92.2374L137.371 92.2374L137.837 91.7711L141.123 91.6146C141.407 91.6011 141.626 91.3601 141.613 91.0763C141.599 90.7926 141.358 90.5735 141.074 90.587L138.919 90.6897L141.04 88.5687C141.241 88.3678 141.241 88.0421 141.04 87.8412C140.839 87.6404 140.513 87.6404 140.312 87.8412L138.219 89.9351L138.219 87.7062C138.219 87.4221 137.988 87.1918 137.704 87.1918C137.42 87.1918 137.19 87.4221 137.19 87.7062L137.19 90.9638L136.618 91.5353V91.1353C136.618 90.8512 136.388 90.6209 136.104 90.6209C135.82 90.6209 135.59 90.8512 135.59 91.1353L135.59 92.564L133.932 94.2214L133.932 91.977L134.867 91.0418C135.068 90.8409 135.068 90.5152 134.867 90.3144C134.667 90.1135 134.341 90.1135 134.14 90.3144L133.932 90.5221V89.4424L136.027 87.1377C136.218 86.9275 136.203 86.6022 135.993 86.4111C135.783 86.22 135.457 86.2355 135.266 86.4457L133.932 87.913L133.932 85.2486C133.932 84.9645 133.702 84.7342 133.418 84.7342C133.134 84.7342 132.903 84.9645 132.903 85.2486V88.1218L131.21 86.428C131.009 86.2271 130.683 86.2271 130.482 86.428C130.281 86.6289 130.281 86.9545 130.482 87.1554L132.903 89.5766V90.6365L132.581 90.3143C132.38 90.1135 132.055 90.1135 131.854 90.3144C131.653 90.5152 131.653 90.8409 131.854 91.0418L132.903 92.0913V94.5644L130.234 91.8945L130.234 90.4332C130.234 90.1491 130.003 89.9188 129.719 89.9188C129.435 89.9188 129.205 90.1491 129.205 90.4332V90.8657L128.754 90.415L128.582 86.8017C128.568 86.518 128.328 86.2989 128.044 86.3124C127.76 86.3259 127.541 86.5669 127.554 86.8506L127.673 89.3336L126.369 88.0298C126.168 87.8289 125.842 87.8289 125.641 88.0298C125.441 88.2307 125.441 88.5564 125.641 88.7572L126.591 89.7065L124.674 89.7065C124.389 89.7065 124.159 89.9368 124.159 90.2208C124.159 90.5049 124.389 90.7352 124.674 90.7352L127.619 90.7352L128.42 91.5353H128.103C127.819 91.5353 127.588 91.7656 127.588 92.0497C127.588 92.3338 127.819 92.5641 128.103 92.5641L129.448 92.5641L132.134 95.2502H128.601L127.323 93.9721C127.122 93.7712 126.797 93.7712 126.596 93.9721C126.395 94.1729 126.395 94.4986 126.596 94.6995L127.147 95.2502L126.33 95.2502L123.648 92.8121C123.438 92.621 123.112 92.6365 122.921 92.8467C122.73 93.0569 122.746 93.3822 122.956 93.5733L124.8 95.2502H122.902C122.618 95.2502 122.388 95.4805 122.388 95.7646C122.388 96.0486 122.618 96.2789 122.902 96.2789H124.289L122.938 97.6298C122.737 97.8307 122.737 98.1563 122.938 98.3572C123.139 98.5581 123.465 98.5581 123.666 98.3572L125.744 96.2789H126.576C126.395 96.4809 126.402 96.7915 126.596 96.9856C126.797 97.1864 127.122 97.1864 127.323 96.9856L128.03 96.2789H131.875L129.548 98.6059H128.086C127.802 98.6059 127.572 98.8362 127.572 99.1203C127.572 99.4044 127.802 99.6347 128.086 99.6347H128.519L128.068 100.085L124.455 100.257C124.171 100.271 123.952 100.512 123.966 100.796C123.979 101.079 124.22 101.299 124.504 101.285L126.987 101.167L125.683 102.471C125.482 102.671 125.482 102.997 125.683 103.198C125.884 103.399 126.21 103.399 126.41 103.198L127.36 102.249V104.166C127.36 104.45 127.59 104.68 127.874 104.68C128.158 104.68 128.388 104.45 128.388 104.166L128.388 101.22L129.189 100.42V100.737C129.189 101.021 129.419 101.251 129.703 101.251C129.987 101.251 130.217 101.021 130.217 100.737V99.3912L132.903 96.705L132.903 100.238L131.625 101.516C131.424 101.717 131.424 102.043 131.625 102.244C131.826 102.444 132.152 102.444 132.353 102.244L132.903 101.693L132.903 102.51L130.465 105.192C130.274 105.402 130.29 105.727 130.5 105.918C130.71 106.109 131.035 106.094 131.227 105.884L132.903 104.039L132.903 105.938C132.903 106.222 133.134 106.452 133.418 106.452C133.702 106.452 133.932 106.222 133.932 105.938L133.932 104.55L135.283 105.901C135.484 106.102 135.81 106.102 136.01 105.901C136.211 105.7 136.211 105.375 136.01 105.174L133.932 103.096V102.263C134.134 102.444 134.445 102.438 134.639 102.244C134.84 102.043 134.84 101.717 134.639 101.516L133.932 100.81V97.0479L135.573 98.6891L135.573 100.067C135.573 100.351 135.804 100.582 136.088 100.582C136.372 100.582 136.602 100.351 136.602 100.067V99.7178L137.068 100.184L137.225 103.47C137.238 103.754 137.479 103.973 137.763 103.959C138.047 103.946 138.266 103.705 138.252 103.421L138.15 101.266L140.271 103.387Z" fill="url(#paint2_radial_30_649)"/>
<path fill-rule="evenodd" clip-rule="evenodd" d="M33.9881 61.6547C34.2006 61.8672 34.5451 61.8672 34.7576 61.6547C34.9701 61.4423 34.9701 61.0978 34.7576 60.8853L32.5427 58.6704L34.9005 58.6704C35.201 58.6704 35.4446 58.4268 35.4446 58.1263C35.4446 57.8258 35.201 57.5822 34.9005 57.5822L31.4545 57.5822L30.85 56.9776L31.2732 56.9776C31.5737 56.9776 31.8173 56.734 31.8173 56.4335C31.8173 56.133 31.5737 55.8894 31.2732 55.8894L29.7618 55.8894L28.0086 54.1362L30.3828 54.1362L31.3721 55.1255C31.5846 55.338 31.9291 55.338 32.1416 55.1255C32.3541 54.913 32.3541 54.5685 32.1416 54.356L31.9218 54.1362L33.0639 54.1362L35.5018 56.3525C35.7242 56.5546 36.0683 56.5382 36.2704 56.3159C36.4726 56.0935 36.4562 55.7494 36.2338 55.5473L34.6817 54.1362L37.5001 54.1362C37.8006 54.1362 38.0442 53.8926 38.0442 53.5921C38.0442 53.2916 37.8006 53.048 37.5001 53.048L34.4609 53.048L36.2526 51.2564C36.4651 51.0439 36.4651 50.6994 36.2526 50.4869C36.0401 50.2744 35.6956 50.2744 35.4831 50.4869L32.922 53.048L31.8009 53.048L32.1416 52.7073C32.3541 52.4948 32.3541 52.1503 32.1416 51.9378C31.9291 51.7253 31.5846 51.7253 31.3721 51.9378L30.2619 53.048L27.7339 53.048L29.8327 50.9493L31.2904 50.9493C31.5909 50.9493 31.8345 50.7057 31.8345 50.4052C31.8345 50.1047 31.5909 49.8611 31.2904 49.8611L30.9209 49.8611L31.4141 49.3678L34.8899 49.2023C35.1901 49.188 35.4218 48.9331 35.4075 48.6329C35.3933 48.3327 35.1383 48.101 34.8382 48.1153L32.558 48.2239L34.8016 45.9803C35.0141 45.7678 35.0141 45.4233 34.8016 45.2108C34.5891 44.9983 34.2446 44.9983 34.0322 45.2108L31.8173 47.4257L31.8173 45.0679C31.8173 44.7674 31.5737 44.5238 31.2732 44.5238C30.9727 44.5238 30.7291 44.7674 30.7291 45.0679L30.7291 48.5139L30.1245 49.1184L30.1245 48.6952C30.1245 48.3947 29.8809 48.1511 29.5804 48.1511C29.2799 48.1511 29.0363 48.3947 29.0363 48.6952L29.0363 50.2066L27.2831 51.9598V49.5856L28.2724 48.5963C28.4849 48.3838 28.4849 48.0393 28.2724 47.8268C28.06 47.6143 27.7154 47.6143 27.503 47.8268L27.2831 48.0467V46.9045L29.4994 44.4666C29.7015 44.2443 29.6851 43.9002 29.4628 43.698C29.2404 43.4959 28.8963 43.5123 28.6942 43.7346L27.2831 45.2868V42.4683C27.2831 42.1678 27.0395 41.9242 26.739 41.9242C26.4385 41.9242 26.1949 42.1678 26.1949 42.4683L26.1949 45.5076L24.4033 43.7159C24.1908 43.5034 23.8463 43.5034 23.6338 43.7159C23.4213 43.9284 23.4213 44.2729 23.6338 44.4854L26.1949 47.0465L26.1949 48.1675L25.8542 47.8268C25.6417 47.6143 25.2972 47.6143 25.0847 47.8268C24.8723 48.0393 24.8723 48.3838 25.0847 48.5963L26.1949 49.7065V52.3226L23.3707 49.4984L23.3707 47.9526C23.3707 47.6521 23.1271 47.4085 22.8266 47.4085C22.5261 47.4085 22.2825 47.6521 22.2825 47.9526V48.4102L21.8057 47.9334L21.6237 44.1112C21.6094 43.811 21.3545 43.5793 21.0543 43.5936C20.7542 43.6079 20.5224 43.8628 20.5367 44.1629L20.6618 46.7894L19.2826 45.4103C19.0702 45.1978 18.7256 45.1978 18.5132 45.4103C18.3007 45.6228 18.3007 45.9673 18.5132 46.1798L19.5172 47.1838L17.4893 47.1838C17.1888 47.1838 16.9452 47.4274 16.9452 47.7279C16.9452 48.0284 17.1888 48.272 17.4893 48.272H20.6054L21.4518 49.1184H21.1167C20.8162 49.1184 20.5726 49.362 20.5726 49.6625C20.5726 49.963 20.8162 50.2066 21.1167 50.2066L22.54 50.2066L25.3814 53.048L21.6443 53.048L20.2923 51.696C20.0798 51.4835 19.7353 51.4835 19.5228 51.696C19.3103 51.9085 19.3103 52.253 19.5228 52.4655L20.1054 53.048L19.2413 53.048L16.4044 50.469C16.182 50.2669 15.8379 50.2833 15.6358 50.5056C15.4336 50.728 15.45 51.0721 15.6724 51.2742L17.6235 53.048H15.6152C15.3147 53.048 15.0711 53.2916 15.0711 53.5921C15.0711 53.8926 15.3147 54.1362 15.6152 54.1362H17.0826L15.6536 55.5652C15.4412 55.7777 15.4412 56.1222 15.6536 56.3346C15.8661 56.5471 16.2106 56.5471 16.4231 56.3346L18.6215 54.1362H19.502C19.3106 54.3499 19.3175 54.6784 19.5228 54.8837C19.7353 55.0962 20.0798 55.0962 20.2923 54.8837L21.0398 54.1362L25.1067 54.1362L22.6452 56.5977L21.0995 56.5977C20.799 56.5977 20.5554 56.8413 20.5554 57.1418C20.5554 57.4423 20.799 57.6859 21.0995 57.6859H21.557L21.0802 58.1627L17.2581 58.3447C16.9579 58.359 16.7262 58.6139 16.7405 58.9141C16.7548 59.2143 17.0097 59.446 17.3098 59.4317L19.9363 59.3066L18.5572 60.6858C18.3447 60.8983 18.3447 61.2428 18.5572 61.4553C18.7697 61.6677 19.1142 61.6677 19.3267 61.4553L20.3307 60.4512L20.3307 62.4791C20.3307 62.7796 20.5743 63.0232 20.8748 63.0232C21.1753 63.0232 21.4189 62.7796 21.4189 62.4791V59.363L22.2653 58.5166V58.8518C22.2653 59.1523 22.5089 59.3959 22.8094 59.3959C23.1099 59.3959 23.3535 59.1523 23.3535 58.8518L23.3535 57.4284L26.1949 54.587L26.1949 58.3241L24.8429 59.6761C24.6304 59.8886 24.6304 60.2331 24.8429 60.4456C25.0554 60.6581 25.3999 60.6581 25.6124 60.4456L26.1949 59.8631L26.1949 60.7272L23.6159 63.564C23.4138 63.7864 23.4302 64.1305 23.6525 64.3326C23.8749 64.5348 24.219 64.5184 24.4211 64.296L26.1949 62.3449L26.1949 64.3532C26.1949 64.6537 26.4385 64.8973 26.739 64.8973C27.0395 64.8973 27.2831 64.6537 27.2831 64.3532V62.8858L28.7121 64.3148C28.9246 64.5273 29.2691 64.5273 29.4815 64.3148C29.694 64.1023 29.694 63.7578 29.4815 63.5453L27.2831 61.3469L27.2831 60.4664C27.4968 60.6578 27.8253 60.6509 28.0306 60.4456C28.2431 60.2331 28.2431 59.8886 28.0306 59.6761L27.2831 58.9286L27.2831 54.9497L29.0192 56.6858V58.1435C29.0192 58.444 29.2628 58.6876 29.5633 58.6876C29.8638 58.6876 30.1074 58.444 30.1074 58.1435V57.774L30.6006 58.2672L30.7662 61.7431C30.7805 62.0432 31.0354 62.2749 31.3355 62.2607C31.6357 62.2464 31.8674 61.9914 31.8531 61.6913L31.7446 59.4112L33.9881 61.6547Z" fill="url(#paint3_radial_30_649)"/>
<defs>
<filter id="filter0_bdi_30_649" x="0.502354" y="0.330553" width="161.524" height="127.849" filterUnits="userSpaceOnUse" color-interpolation-filters="sRGB">
<feFlood flood-opacity="0" result="BackgroundImageFix"/>
<feGaussianBlur in="BackgroundImageFix" stdDeviation="4.56605"/>
<feComposite in2="SourceAlpha" operator="in" result="effect1_backgroundBlur_30_649"/>
<feColorMatrix in="SourceAlpha" type="matrix" values="0 0 0 0 0 0 0 0 0 0 0 0 0 0 0 0 0 0 127 0" result="hardAlpha"/>
<feOffset dy="9.13209"/>
<feGaussianBlur stdDeviation="9.13209"/>
<feColorMatrix type="matrix" values="0 0 0 0 0.0313726 0 0 0 0 0.129412 0 0 0 0 0.219608 0 0 0 0.2 0"/>
<feBlend mode="normal" in2="effect1_backgroundBlur_30_649" result="effect2_dropShadow_30_649"/>
<feBlend mode="normal" in="SourceGraphic" in2="effect2_dropShadow_30_649" result="shape"/>
<feColorMatrix in="SourceAlpha" type="matrix" values="0 0 0 0 0 0 0 0 0 0 0 0 0 0 0 0 0 0 127 0" result="hardAlpha"/>
<feOffset dx="0.570756" dy="1.14151"/>
<feGaussianBlur stdDeviation="3.99529"/>
<feComposite in2="hardAlpha" operator="arithmetic" k2="-1" k3="1"/>
<feColorMatrix type="matrix" values="0 0 0 0 0.0761458 0 0 0 0 0.185885 0 0 0 0 0.358333 0 0 0 1 0"/>
<feBlend mode="normal" in2="shape" result="effect3_innerShadow_30_649"/>
</filter>
<radialGradient id="paint0_radial_30_649" cx="0" cy="0" r="1" gradientUnits="userSpaceOnUse" gradientTransform="translate(62.8086 28.9337) rotate(90.6693) scale(71.8174 81.9532)">
<stop offset="0.015625" stop-color="#27364E"/>
<stop offset="1"/>
</radialGradient>
<radialGradient id="paint1_radial_30_649" cx="0" cy="0" r="1" gradientUnits="userSpaceOnUse" gradientTransform="translate(81.5497 99.0713) rotate(90) scale(27.967 55.9341)">
<stop stop-color="#7FDFF4"/>
<stop offset="1" stop-color="#0C43BF"/>
</radialGradient>
<radialGradient id="paint2_radial_30_649" cx="0" cy="0" r="1" gradientUnits="userSpaceOnUse" gradientTransform="translate(133.361 95.0216) rotate(90) scale(11.2018 22.4036)">
<stop stop-color="#7FDFF4"/>
<stop offset="1" stop-color="#0C43BF"/>
</radialGradient>
<radialGradient id="paint3_radial_30_649" cx="0" cy="0" r="1" gradientUnits="userSpaceOnUse" gradientTransform="translate(26.6786 52.8062) rotate(90) scale(11.8493 23.6986)">
<stop stop-color="#7FDFF4"/>
<stop offset="1" stop-color="#0C43BF"/>
</radialGradient>
</defs>
</svg>
