<svg width="212" height="168" viewBox="0 0 212 168" fill="none" xmlns="http://www.w3.org/2000/svg">
<g filter="url(#filter0_bdi_30_525)">
<path fill-rule="evenodd" clip-rule="evenodd" d="M69.384 113.839C69.1943 113.843 69.004 113.845 68.8133 113.845C54.6295 113.845 43.1313 102.347 43.1313 88.1632C43.1313 78.5376 48.4268 70.1488 56.2633 65.7512C56.2596 65.5177 56.2577 65.2838 56.2577 65.0494C56.2577 41.5674 75.2936 22.5315 98.7756 22.5315C119.031 22.5315 135.978 36.6952 140.253 55.6587C155.752 56.3095 168.117 69.0802 168.117 84.7389C168.117 100.814 155.086 113.845 139.011 113.845H69.384V113.839Z" fill="url(#paint0_radial_30_525)" fill-opacity="0.77"/>
</g>
<g opacity="0.54" filter="url(#filter1_f_30_525)">
<ellipse cx="80.7982" cy="86.1656" rx="26.2527" ry="24.2552" fill="white"/>
<ellipse cx="105.909" cy="70.4711" rx="34.2426" ry="36.5254" fill="white"/>
<ellipse cx="151.566" cy="63.9079" rx="26.2527" ry="24.2552" fill="white"/>
<ellipse cx="64.533" cy="105.57" rx="30.533" ry="28.2501" fill="white"/>
<ellipse cx="54.2602" cy="110.991" rx="17.4067" ry="15.9799" fill="white"/>
</g>
<defs>
<filter id="filter0_bdi_30_525" x="24.8686" y="13.4001" width="161.511" height="127.839" filterUnits="userSpaceOnUse" color-interpolation-filters="sRGB">
<feFlood flood-opacity="0" result="BackgroundImageFix"/>
<feGaussianBlur in="BackgroundImageFix" stdDeviation="4.56568"/>
<feComposite in2="SourceAlpha" operator="in" result="effect1_backgroundBlur_30_525"/>
<feColorMatrix in="SourceAlpha" type="matrix" values="0 0 0 0 0 0 0 0 0 0 0 0 0 0 0 0 0 0 127 0" result="hardAlpha"/>
<feOffset dy="9.13136"/>
<feGaussianBlur stdDeviation="9.13136"/>
<feColorMatrix type="matrix" values="0 0 0 0 0 0 0 0 0 0.2015 0 0 0 0 0.3875 0 0 0 0.2 0"/>
<feBlend mode="normal" in2="effect1_backgroundBlur_30_525" result="effect2_dropShadow_30_525"/>
<feBlend mode="normal" in="SourceGraphic" in2="effect2_dropShadow_30_525" result="shape"/>
<feColorMatrix in="SourceAlpha" type="matrix" values="0 0 0 0 0 0 0 0 0 0 0 0 0 0 0 0 0 0 127 0" result="hardAlpha"/>
<feOffset dx="0.57071" dy="1.14142"/>
<feGaussianBlur stdDeviation="3.99497"/>
<feComposite in2="hardAlpha" operator="arithmetic" k2="-1" k3="1"/>
<feColorMatrix type="matrix" values="0 0 0 0 1 0 0 0 0 1 0 0 0 0 1 0 0 0 1 0"/>
<feBlend mode="normal" in2="shape" result="effect3_innerShadow_30_525"/>
</filter>
<filter id="filter1_f_30_525" x="0.428349" y="0.374027" width="210.962" height="167.017" filterUnits="userSpaceOnUse" color-interpolation-filters="sRGB">
<feFlood flood-opacity="0" result="BackgroundImageFix"/>
<feBlend mode="normal" in="SourceGraphic" in2="BackgroundImageFix" result="shape"/>
<feGaussianBlur stdDeviation="16.7858" result="effect1_foregroundBlur_30_525"/>
</filter>
<radialGradient id="paint0_radial_30_525" cx="0" cy="0" r="1" gradientUnits="userSpaceOnUse" gradientTransform="translate(87.1699 42.0009) rotate(90.6693) scale(71.8116 81.9466)">
<stop stop-color="white"/>
<stop offset="1" stop-color="#99CEFF"/>
</radialGradient>
</defs>
</svg>
