<svg width="162" height="129" viewBox="0 0 162 129" fill="none" xmlns="http://www.w3.org/2000/svg">
<g filter="url(#filter0_bdi_30_492)">
<path fill-rule="evenodd" clip-rule="evenodd" d="M44.9822 100.691C44.7924 100.696 44.6022 100.698 44.4115 100.698C30.2277 100.698 18.7295 89.1994 18.7295 75.0157C18.7295 65.3901 24.025 57.0013 31.8615 52.6037C31.8577 52.3702 31.8558 52.1363 31.8558 51.9019C31.8558 28.42 50.8918 9.38404 74.3737 9.38404C94.6289 9.38404 111.576 23.5477 115.851 42.5113C131.35 43.1621 143.715 55.9327 143.715 71.5914C143.715 87.6663 130.684 100.698 114.609 100.698C114.418 100.698 114.228 100.696 114.038 100.692V100.698H44.9822V100.691Z" fill="url(#paint0_radial_30_492)" fill-opacity="0.77"/>
</g>
<line x1="81.6503" y1="74.5877" x2="81.6503" y2="126.237" stroke="white" stroke-width="2.56819" stroke-linecap="round"/>
<path d="M75.2298 78.4399L81.5076 84.7178L87.2147 78.4399" stroke="white" stroke-width="2.56819" stroke-linecap="round"/>
<path d="M87.2147 125.238L80.9369 118.96L75.2298 125.238" stroke="white" stroke-width="2.56819" stroke-linecap="round"/>
<path d="M78.6541 88.1421L81.5076 90.9956L84.3612 88.1421" stroke="white" stroke-width="2.56819" stroke-linecap="round"/>
<path d="M83.7905 116.107L80.9369 113.253L78.0834 116.107" stroke="white" stroke-width="2.56819" stroke-linecap="round"/>
<line x1="107.047" y1="100.84" x2="55.3976" y2="100.84" stroke="white" stroke-width="2.56819" stroke-linecap="round"/>
<path d="M103.195 94.4198L96.9168 100.698L103.195 106.405" stroke="white" stroke-width="2.56819" stroke-linecap="round"/>
<path d="M56.3964 106.405L62.6742 100.127L56.3964 94.4198" stroke="white" stroke-width="2.56819" stroke-linecap="round"/>
<path d="M93.4925 97.844L90.6389 100.698L93.4925 103.551" stroke="white" stroke-width="2.56819" stroke-linecap="round"/>
<path d="M65.5277 102.98L68.3813 100.127L65.5277 97.2734" stroke="white" stroke-width="2.56819" stroke-linecap="round"/>
<line x1="99.7703" y1="81.9681" x2="63.2488" y2="118.49" stroke="white" stroke-width="2.56819" stroke-linecap="round"/>
<path d="M92.3511 80.7229V89.6011L100.826 89.1975" stroke="white" stroke-width="2.56819" stroke-linecap="round"/>
<path d="M67.8105 121.814L67.8105 112.936L59.3359 113.339" stroke="white" stroke-width="2.56819" stroke-linecap="round"/>
<path d="M88.3561 89.2834V93.319H92.3917" stroke="white" stroke-width="2.56819" stroke-linecap="round"/>
<path d="M72.3762 113.253L72.3762 109.218L68.3407 109.218" stroke="white" stroke-width="2.56819" stroke-linecap="round"/>
<line x1="99.6665" y1="118.96" x2="63.145" y2="82.4388" stroke="white" stroke-width="2.56819" stroke-linecap="round"/>
<path d="M100.912 111.541H92.0336L92.4371 120.016" stroke="white" stroke-width="2.56819" stroke-linecap="round"/>
<path d="M59.8206 87.0006L68.6988 87.0006L68.2952 78.526" stroke="white" stroke-width="2.56819" stroke-linecap="round"/>
<path d="M92.3511 107.546H88.3155V111.582" stroke="white" stroke-width="2.56819" stroke-linecap="round"/>
<path d="M68.3813 91.5663L72.4168 91.5663L72.4168 87.5308" stroke="white" stroke-width="2.56819" stroke-linecap="round"/>
<defs>
<filter id="filter0_bdi_30_492" x="0.466776" y="0.252675" width="161.511" height="127.839" filterUnits="userSpaceOnUse" color-interpolation-filters="sRGB">
<feFlood flood-opacity="0" result="BackgroundImageFix"/>
<feGaussianBlur in="BackgroundImageFix" stdDeviation="4.56568"/>
<feComposite in2="SourceAlpha" operator="in" result="effect1_backgroundBlur_30_492"/>
<feColorMatrix in="SourceAlpha" type="matrix" values="0 0 0 0 0 0 0 0 0 0 0 0 0 0 0 0 0 0 127 0" result="hardAlpha"/>
<feOffset dy="9.13136"/>
<feGaussianBlur stdDeviation="9.13136"/>
<feColorMatrix type="matrix" values="0 0 0 0 0 0 0 0 0 0.2015 0 0 0 0 0.3875 0 0 0 0.2 0"/>
<feBlend mode="normal" in2="effect1_backgroundBlur_30_492" result="effect2_dropShadow_30_492"/>
<feBlend mode="normal" in="SourceGraphic" in2="effect2_dropShadow_30_492" result="shape"/>
<feColorMatrix in="SourceAlpha" type="matrix" values="0 0 0 0 0 0 0 0 0 0 0 0 0 0 0 0 0 0 127 0" result="hardAlpha"/>
<feOffset dx="0.57071" dy="1.14142"/>
<feGaussianBlur stdDeviation="3.99497"/>
<feComposite in2="hardAlpha" operator="arithmetic" k2="-1" k3="1"/>
<feColorMatrix type="matrix" values="0 0 0 0 1 0 0 0 0 1 0 0 0 0 1 0 0 0 1 0"/>
<feBlend mode="normal" in2="shape" result="effect3_innerShadow_30_492"/>
</filter>
<radialGradient id="paint0_radial_30_492" cx="0" cy="0" r="1" gradientUnits="userSpaceOnUse" gradientTransform="translate(62.768 28.8535) rotate(90.6693) scale(71.8116 81.9466)">
<stop stop-color="white"/>
<stop offset="1" stop-color="#99CEFF"/>
</radialGradient>
</defs>
</svg>
