<svg width="24" height="25" viewBox="0 0 24 25" fill="none" xmlns="http://www.w3.org/2000/svg">
<path d="M22.5 20.8067V12.9515C22.5 12.3185 22.3712 11.6922 22.1215 11.1105C21.8718 10.5289 21.5064 10.0041 21.0475 9.56815L13.6077 2.50165C13.174 2.08969 12.5987 1.85999 12.0006 1.85999C11.4024 1.85999 10.8271 2.08969 10.3935 2.50165L2.9525 9.56815C2.49359 10.0041 2.12818 10.5289 1.87847 11.1105C1.62877 11.6922 1.5 12.3185 1.5 12.9515V20.8067C1.5 21.4255 1.74583 22.019 2.18342 22.4566C2.621 22.8942 3.21449 23.14 3.83333 23.14H20.1667C20.7855 23.14 21.379 22.8942 21.8166 22.4566C22.2542 22.019 22.5 21.4255 22.5 20.8067Z" stroke="white" stroke-width="2.33333" stroke-linecap="round" stroke-linejoin="round"/>
</svg>
