<svg width="23" height="24" viewBox="0 0 23 24" fill="none" xmlns="http://www.w3.org/2000/svg">
<path d="M11.5 13.4375C10.7892 13.4375 10.0944 13.2267 9.50342 12.8318C8.91243 12.437 8.45181 11.8757 8.17981 11.219C7.90781 10.5623 7.83664 9.83977 7.9753 9.14265C8.11397 8.44553 8.45624 7.80518 8.95884 7.30259C9.46143 6.79999 10.1018 6.45772 10.7989 6.31905C11.496 6.18039 12.2186 6.25156 12.8753 6.52356C13.5319 6.79556 14.0932 7.25618 14.4881 7.84717C14.883 8.43816 15.0938 9.13298 15.0938 9.84375C15.0926 10.7965 14.7136 11.7099 14.0399 12.3837C13.3662 13.0574 12.4528 13.4364 11.5 13.4375V13.4375ZM11.5 7.6875C11.0735 7.6875 10.6566 7.81396 10.3021 8.0509C9.94746 8.28783 9.67109 8.62459 9.50789 9.01859C9.34468 9.41259 9.30198 9.84614 9.38518 10.2644C9.46838 10.6827 9.67375 11.0669 9.9753 11.3685C10.2769 11.67 10.6611 11.8754 11.0793 11.9586C11.4976 12.0418 11.9312 11.9991 12.3252 11.8359C12.7192 11.6727 13.0559 11.3963 13.2929 11.0417C13.5298 10.6871 13.6563 10.2702 13.6563 9.84375C13.6557 9.27205 13.4283 8.72393 13.0241 8.31968C12.6198 7.91543 12.0717 7.68807 11.5 7.6875V7.6875Z" fill="white"/>
<path d="M11.5 22.0625L5.43663 14.9117C5.35238 14.8043 5.269 14.6962 5.18651 14.5875C4.15078 13.2232 3.59125 11.5567 3.59376 9.84375C3.59376 7.74688 4.42674 5.7359 5.90945 4.25319C7.39216 2.77048 9.40314 1.9375 11.5 1.9375C13.5969 1.9375 15.6079 2.77048 17.0906 4.25319C18.5733 5.7359 19.4063 7.74688 19.4063 9.84375C19.4088 11.5559 18.8495 13.2216 17.8142 14.5853L17.8135 14.5875C17.8135 14.5875 17.5979 14.8707 17.5655 14.9088L11.5 22.0625ZM6.33363 13.7214C6.33507 13.7214 6.50182 13.9428 6.53992 13.9902L11.5 19.8401L16.4666 13.9823C16.4982 13.9428 16.6664 13.72 16.6671 13.7193C17.5132 12.6046 17.9704 11.2432 17.9688 9.84375C17.9688 8.12813 17.2872 6.48278 16.0741 5.26965C14.861 4.05653 13.2156 3.375 11.5 3.375C9.78439 3.375 8.13904 4.05653 6.92591 5.26965C5.71279 6.48278 5.03126 8.12813 5.03126 9.84375C5.02975 11.244 5.4875 12.6062 6.33435 13.7214H6.33363Z" fill="white"/>
</svg>
