<svg width="34" height="40" viewBox="0 0 34 40" fill="none" xmlns="http://www.w3.org/2000/svg">
<g filter="url(#filter0_d_144_978)">
<path d="M16.9219 19.1309C16.0614 19.1309 15.2203 18.8757 14.5048 18.3977C13.7894 17.9196 13.2317 17.2401 12.9025 16.4452C12.5732 15.6502 12.487 14.7755 12.6549 13.9315C12.8228 13.0876 13.2371 12.3124 13.8455 11.7039C14.454 11.0955 15.2292 10.6812 16.0731 10.5133C16.9171 10.3454 17.7918 10.4316 18.5868 10.7609C19.3817 11.0901 20.0612 11.6478 20.5393 12.3632C21.0173 13.0787 21.2725 13.9198 21.2725 14.7803C21.2711 15.9337 20.8123 17.0395 19.9967 17.8551C19.1811 18.6707 18.0753 19.1295 16.9219 19.1309V19.1309ZM16.9219 12.1699C16.4056 12.1699 15.9009 12.323 15.4716 12.6098C15.0424 12.8967 14.7078 13.3044 14.5102 13.7813C14.3127 14.2583 14.261 14.7832 14.3617 15.2895C14.4624 15.7959 14.711 16.261 15.0761 16.6261C15.4411 16.9911 15.9063 17.2398 16.4126 17.3405C16.919 17.4412 17.4438 17.3895 17.9208 17.1919C18.3978 16.9944 18.8055 16.6598 19.0923 16.2305C19.3791 15.8012 19.5322 15.2966 19.5322 14.7803C19.5315 14.0882 19.2563 13.4246 18.7669 12.9352C18.2775 12.4459 17.614 12.1706 16.9219 12.1699V12.1699Z" fill="white"/>
<path d="M16.9219 29.5723L9.58158 20.9155C9.47958 20.7855 9.37865 20.6547 9.27878 20.523C8.02492 18.8714 7.34756 16.854 7.3506 14.7803C7.3506 12.2418 8.359 9.80732 10.154 8.01235C11.9489 6.21739 14.3834 5.20898 16.9219 5.20898C19.4603 5.20898 21.8948 6.21739 23.6898 8.01235C25.4848 9.80732 26.4932 12.2418 26.4932 14.7803C26.4962 16.853 25.8192 18.8695 24.5659 20.5204L24.565 20.523C24.565 20.523 24.304 20.8659 24.2648 20.912L16.9219 29.5723ZM10.6675 19.4746C10.6692 19.4746 10.8711 19.7426 10.9172 19.8L16.9219 26.8819L22.9344 19.7904C22.9727 19.7426 23.1763 19.4728 23.1772 19.4719C24.2014 18.1225 24.755 16.4744 24.7529 14.7803C24.7529 12.7033 23.9279 10.7115 22.4593 9.24288C20.9907 7.77427 18.9988 6.94922 16.9219 6.94922C14.845 6.94922 12.8531 7.77427 11.3845 9.24288C9.91589 10.7115 9.09083 12.7033 9.09083 14.7803C9.089 16.4755 9.64316 18.1245 10.6684 19.4746H10.6675Z" fill="white"/>
</g>
<defs>
<filter id="filter0_d_144_978" x="-4.3273" y="-0.927631" width="42.4984" height="42.4984" filterUnits="userSpaceOnUse" color-interpolation-filters="sRGB">
<feFlood flood-opacity="0" result="BackgroundImageFix"/>
<feColorMatrix in="SourceAlpha" type="matrix" values="0 0 0 0 0 0 0 0 0 0 0 0 0 0 0 0 0 0 127 0" result="hardAlpha"/>
<feOffset dy="2.93092"/>
<feGaussianBlur stdDeviation="3.66365"/>
<feComposite in2="hardAlpha" operator="out"/>
<feColorMatrix type="matrix" values="0 0 0 0 0.4375 0 0 0 0 0.42474 0 0 0 0 0.42474 0 0 0 0.25 0"/>
<feBlend mode="normal" in2="BackgroundImageFix" result="effect1_dropShadow_144_978"/>
<feBlend mode="normal" in="SourceGraphic" in2="effect1_dropShadow_144_978" result="shape"/>
</filter>
</defs>
</svg>
