<svg width="25" height="19" viewBox="0 0 25 19" fill="none" xmlns="http://www.w3.org/2000/svg">
<path d="M24.1886 8.74866C24.1888 9.4661 23.9831 10.1685 23.596 10.7725C23.2089 11.3766 22.6566 11.8569 22.0048 12.1565C21.7435 11.698 21.4148 11.2814 21.0298 10.9206C21.6058 10.7636 22.0959 10.3843 22.3922 9.86602C22.6886 9.34774 22.7669 8.73297 22.61 8.15694C22.453 7.58092 22.0737 7.09083 21.5554 6.79449C21.0371 6.49815 20.4224 6.41983 19.8464 6.57677C19.7427 6.60487 19.6342 6.61037 19.5282 6.59291C19.4222 6.57545 19.3213 6.53542 19.2321 6.47555C19.1429 6.41568 19.0676 6.33735 19.0114 6.24587C18.9551 6.15439 18.9191 6.05188 18.9059 5.9453C18.7998 5.08633 18.4483 4.27617 17.8934 3.61194C17.3385 2.94771 16.6039 2.45759 15.7775 2.20034C14.9511 1.94308 14.0681 1.92961 13.2343 2.16153C12.4004 2.39345 11.6511 2.86092 11.0763 3.50791C10.4353 3.4785 9.79317 3.52279 9.16235 3.6399C9.73756 2.58067 10.6183 1.71914 11.69 1.16745C12.7617 0.615763 13.9746 0.399478 15.1709 0.54675C16.3672 0.694023 17.4915 1.19803 18.3973 1.99316C19.3032 2.7883 19.9487 3.83773 20.2498 5.00484C20.7574 4.97923 21.2649 5.05706 21.7415 5.23363C22.2181 5.4102 22.6538 5.6818 23.0222 6.03195C23.3906 6.3821 23.684 6.80348 23.8845 7.2705C24.085 7.73752 24.1885 8.24042 24.1886 8.74866Z" fill="white"/>
<path d="M10.6893 4.99884C12.3498 4.99852 13.9521 5.6103 15.1899 6.71717C16.4277 7.82405 17.214 9.34835 17.3985 10.9986H17.439C18.4335 10.9986 19.3873 11.3936 20.0905 12.0969C20.7937 12.8001 21.1888 13.7539 21.1888 14.7484C21.1888 15.7429 20.7937 16.6967 20.0905 17.3999C19.3873 18.1031 18.4335 18.4982 17.439 18.4982H4.68959C3.52768 18.4991 2.41048 18.0505 1.57182 17.2463C0.733174 16.4421 0.238097 15.3447 0.190226 14.1838C0.142355 13.0229 0.545401 11.8885 1.315 11.018C2.08459 10.1475 3.16107 9.60841 4.31911 9.51363C4.78262 8.19405 5.64444 7.05095 6.78554 6.24221C7.92663 5.43348 9.29069 4.99902 10.6893 4.99884V4.99884ZM15.9391 11.7485C15.94 10.4699 15.4741 9.23484 14.6291 8.27525C13.784 7.31566 12.6177 6.69749 11.3492 6.53677C10.0807 6.37604 8.79712 6.6838 7.73942 7.4023C6.68171 8.12079 5.9226 9.20061 5.60455 10.4391C5.56151 10.6067 5.46184 10.7543 5.32242 10.8568C5.18299 10.9593 5.01241 11.0105 4.83958 11.0016C4.44114 10.9839 4.04317 11.0458 3.66896 11.1838C3.29474 11.3217 2.95178 11.5329 2.66015 11.805C2.36852 12.077 2.13408 12.4045 1.97052 12.7683C1.80696 13.132 1.71759 13.5247 1.70761 13.9235C1.69764 14.3222 1.76727 14.7189 1.91244 15.0903C2.0576 15.4618 2.27539 15.8006 2.55305 16.0869C2.83071 16.3732 3.16268 16.6013 3.52953 16.7578C3.89639 16.9143 4.29076 16.996 4.68959 16.9983H17.439C17.758 16.9975 18.0732 16.929 18.3637 16.7971C18.6542 16.6653 18.9133 16.4731 19.1239 16.2335C19.3345 15.9938 19.4917 15.7122 19.5851 15.4071C19.6785 15.1021 19.706 14.7807 19.6657 14.4642C19.6254 14.1477 19.5182 13.8435 19.3514 13.5716C19.1845 13.2997 18.9617 13.0664 18.6978 12.8871C18.4339 12.7079 18.1349 12.5869 17.8206 12.532C17.5064 12.4771 17.184 12.4898 16.875 12.569C16.7633 12.5976 16.6465 12.6001 16.5337 12.5762C16.4209 12.5523 16.3151 12.5028 16.2246 12.4314C16.1341 12.36 16.0612 12.2687 16.0117 12.1646C15.9621 12.0604 15.9373 11.9463 15.9391 11.831V11.7485Z" fill="white"/>
</svg>
