<svg width="24" height="24" viewBox="0 0 24 24" fill="none" xmlns="http://www.w3.org/2000/svg">
<path d="M5.11904 23.764C5.04399 23.6895 4.98443 23.6008 4.94379 23.5032C4.90315 23.4055 4.88223 23.3008 4.88223 23.195C4.88223 23.0892 4.90315 22.9845 4.94379 22.8869C4.98443 22.7892 5.04399 22.7006 5.11904 22.626L9.28504 18.461C9.39581 18.3441 9.53919 18.2631 9.69656 18.2287C9.85393 18.1943 10.018 18.2081 10.1675 18.2681C10.3169 18.3282 10.4449 18.4318 10.5347 18.5656C10.6245 18.6993 10.672 18.8569 10.671 19.018C10.6712 19.1266 10.6493 19.2341 10.6066 19.334C10.564 19.4338 10.5016 19.524 10.423 19.599L6.25804 23.765C6.18349 23.8401 6.09484 23.8996 5.99719 23.9403C5.89954 23.9809 5.79481 24.0018 5.68904 24.0018C5.58326 24.0018 5.47853 23.9809 5.38088 23.9403C5.28323 23.8996 5.19458 23.8401 5.12004 23.765L5.11904 23.764ZM13.594 19.824C13.519 19.7495 13.4594 19.6608 13.4188 19.5632C13.3782 19.4655 13.3572 19.3608 13.3572 19.255C13.3572 19.1492 13.3782 19.0445 13.4188 18.9469C13.4594 18.8492 13.519 18.7606 13.594 18.686L16.653 15.63H8.15304L3.95504 19.825C3.88031 19.8997 3.7916 19.959 3.69398 19.9995C3.59635 20.0399 3.49171 20.0607 3.38603 20.0607C3.28036 20.0607 3.17572 20.0399 3.07809 19.9995C2.98047 19.959 2.89176 19.8997 2.81703 19.825C2.74231 19.7503 2.68304 19.6616 2.6426 19.564C2.60216 19.4663 2.58135 19.3617 2.58135 19.256C2.58135 19.1504 2.60216 19.0457 2.6426 18.9481C2.68304 18.8505 2.74231 18.7617 2.81703 18.687L5.87704 15.627H5.74204C4.20219 15.627 2.72541 15.0153 1.63657 13.9265C0.547737 12.8376 -0.0639648 11.3609 -0.0639648 9.82102C-0.0639648 8.28118 0.547737 6.8044 1.63657 5.71556C2.72541 4.62673 4.20219 4.01502 5.74204 4.01502H5.80904H5.80604C5.89604 4.01502 5.98604 4.02202 6.07504 4.02602C7.43904 1.60602 9.99203 -0.000976562 12.921 -0.000976562C14.998 -0.000976579 16.99 0.824041 18.4587 2.29261C19.9275 3.76118 20.7528 5.75302 20.753 7.83002V7.84502C21.6104 8.05629 22.3724 8.54848 22.9176 9.24315C23.4627 9.93782 23.7597 10.795 23.761 11.678C23.761 12.1962 23.659 12.7093 23.4607 13.1881C23.2624 13.6668 22.9717 14.1018 22.6053 14.4683C22.2389 14.8347 21.8039 15.1253 21.3251 15.3237C20.8464 15.522 20.3332 15.624 19.815 15.624H18.931L14.733 19.822C14.6585 19.8971 14.5698 19.9566 14.4722 19.9973C14.3745 20.0379 14.2698 20.0588 14.164 20.0588C14.0583 20.0588 13.9535 20.0379 13.8559 19.9973C13.7582 19.9566 13.6696 19.8971 13.595 19.822L13.594 19.824ZM1.60904 9.82002C1.61009 10.9326 2.05248 11.9994 2.83912 12.7862C3.62577 13.5731 4.69242 14.0157 5.80504 14.017H19.809C20.4294 14.0169 21.0243 13.7703 21.4628 13.3316C21.9014 12.8929 22.1477 12.2979 22.1475 11.6775C22.1474 11.0572 21.9008 10.4623 21.4621 10.0237C21.0234 9.58519 20.4284 9.33889 19.808 9.33902C19.231 9.33902 18.704 9.54802 18.296 9.89302L18.299 9.89002C18.1357 10.0237 17.9265 10.088 17.7163 10.0691C17.5061 10.0502 17.3117 9.94959 17.1749 9.78892C17.0381 9.62826 16.9697 9.42033 16.9845 9.20981C16.9993 8.99929 17.0961 8.80297 17.254 8.66302L17.255 8.66202C17.7845 8.21298 18.4235 7.91242 19.107 7.79102L19.131 7.78702C19.1192 6.4627 18.6849 5.17673 17.8915 4.11633C17.098 3.05594 15.9869 2.27648 14.7197 1.89143C13.4525 1.50638 12.0955 1.53585 10.8463 1.97554C9.597 2.41523 8.52069 3.24219 7.77404 4.33602L7.76004 4.35702C8.36831 4.57362 8.93613 4.89031 9.44003 5.29402L9.42904 5.28502C9.59559 5.41869 9.70223 5.61305 9.72548 5.82534C9.74873 6.03763 9.6867 6.25047 9.55304 6.41702C9.41937 6.58358 9.22501 6.69021 9.01272 6.71347C8.80043 6.73672 8.58759 6.67469 8.42103 6.54102L8.42204 6.54202C7.68478 5.94534 6.7645 5.6208 5.81604 5.62302H5.80504H5.80604C4.69282 5.62329 3.62524 6.06549 2.83789 6.85247C2.05054 7.63944 1.60783 8.70681 1.60704 9.82002H1.60904Z" fill="white"/>
</svg>
