<svg width="42" height="35" viewBox="0 0 42 35" fill="none" xmlns="http://www.w3.org/2000/svg">
<path d="M14.5 30C15.163 30 15.7989 30.2634 16.2677 30.7322C16.7366 31.2011 17 31.837 17 32.5C17 33.163 16.7366 33.7989 16.2677 34.2678C15.7989 34.7366 15.163 35 14.5 35C13.8369 35 13.201 34.7366 12.7322 34.2678C12.2633 33.7989 12 33.163 12 32.5C12 31.837 12.2633 31.2011 12.7322 30.7322C13.201 30.2634 13.8369 30 14.5 30V30ZM35.0229 11.5C36.6086 11.4997 38.1294 12.1292 39.251 13.2501C40.3726 14.3709 41.0032 15.8914 41.004 17.477C41.004 20.777 38.2989 23.468 34.9939 23.468L35.027 23.469C34.978 23.48 34.9289 23.489 34.8769 23.493L34.75 23.5H31.717C32.282 24.36 32.611 25.389 32.611 26.494C32.611 29.556 30.313 32.001 27.276 32.001C24.258 32.001 22.454 30.255 21.965 27.813C21.9272 27.6501 21.9225 27.4812 21.9512 27.3164C21.9799 27.1516 22.0414 26.9943 22.132 26.8537C22.2226 26.7131 22.3405 26.5922 22.4787 26.498C22.6169 26.4038 22.7726 26.3383 22.9366 26.3053C23.1006 26.2724 23.2695 26.2727 23.4333 26.3062C23.5972 26.3398 23.7527 26.4059 23.8905 26.5006C24.0284 26.5953 24.1458 26.7167 24.2359 26.8576C24.326 26.9985 24.3869 27.1561 24.415 27.321C24.686 28.671 25.544 29.501 27.275 29.501C28.896 29.501 30.111 28.209 30.111 26.494C30.111 24.903 28.847 23.596 27.247 23.505L27.068 23.5H2.24995C1.92852 23.5015 1.61887 23.3791 1.38532 23.1583C1.15176 22.9374 1.01226 22.6351 0.995785 22.3141C0.97931 21.9931 1.08713 21.6781 1.29685 21.4345C1.50656 21.1909 1.80206 21.0374 2.12195 21.006L2.24995 21H34.715C34.805 20.98 34.8979 20.968 34.9949 20.968C36.9209 20.968 38.505 19.393 38.505 17.478C38.5047 17.0209 38.4144 16.5684 38.2392 16.1462C38.064 15.724 37.8074 15.3405 37.4839 15.0175C37.1605 14.6945 36.7766 14.4384 36.3541 14.2638C35.9317 14.0893 35.479 13.9996 35.0219 14C34.1361 13.9996 33.2834 14.337 32.6377 14.9435C31.992 15.55 31.6019 16.3799 31.547 17.264C31.5271 17.595 31.3765 17.9045 31.1284 18.1245C30.8803 18.3445 30.5549 18.4569 30.224 18.437C29.893 18.4171 29.5834 18.2665 29.3635 18.0184C29.1435 17.7703 29.0311 17.445 29.051 17.114C29.1442 15.594 29.8137 14.1668 30.9231 13.1236C32.0325 12.0804 33.4981 11.4997 35.021 11.5H35.0229ZM19.99 0C22.0856 0.00669489 24.0947 0.836224 25.5846 2.30991C27.0745 3.7836 27.926 5.78354 27.9556 7.87894C27.9853 9.97435 27.1907 11.9976 25.743 13.5128C24.2954 15.028 22.3105 15.914 20.216 15.98L20.109 15.995L20 16H2.24995C1.92852 16.0015 1.61887 15.8791 1.38532 15.6583C1.15176 15.4374 1.01226 15.1351 0.995785 14.8141C0.97931 14.4931 1.08713 14.1781 1.29685 13.9345C1.50656 13.6909 1.80206 13.5374 2.12195 13.506L2.24995 13.5H19.791L19.891 13.487L19.991 13.483C21.0772 13.4832 22.1391 13.1613 23.0424 12.5579C23.9457 11.9546 24.6498 11.0969 25.0656 10.0934C25.4814 9.08988 25.5903 7.98559 25.3785 6.92018C25.1668 5.85477 24.6438 4.87609 23.8757 4.10792C23.1077 3.33975 22.1291 2.81659 21.0638 2.6046C19.9984 2.39261 18.8941 2.50131 17.8905 2.91696C16.8869 3.3326 16.0291 4.03653 15.4256 4.9397C14.8221 5.84288 14.5 6.90474 14.5 7.991C14.5 8.32252 14.3683 8.64046 14.1338 8.87488C13.8994 9.1093 13.5815 9.241 13.25 9.241C12.9184 9.241 12.6005 9.1093 12.3661 8.87488C12.1316 8.64046 12 8.32252 12 7.991C12.0002 5.87174 12.8422 3.83935 14.3408 2.3408C15.8393 0.842256 17.8717 0.000265157 19.991 0H19.99ZM34.5 2C35.163 2 35.7989 2.26339 36.2677 2.73223C36.7366 3.20107 37 3.83696 37 4.5C37 5.16304 36.7366 5.79893 36.2677 6.26777C35.7989 6.73661 35.163 7 34.5 7C33.8369 7 33.201 6.73661 32.7322 6.26777C32.2633 5.79893 32 5.16304 32 4.5C32 3.83696 32.2633 3.20107 32.7322 2.73223C33.201 2.26339 33.8369 2 34.5 2V2ZM4.49995 0C5.16299 0 5.79888 0.263392 6.26772 0.732233C6.73656 1.20107 6.99995 1.83696 6.99995 2.5C6.99995 3.16304 6.73656 3.79893 6.26772 4.26777C5.79888 4.73661 5.16299 5 4.49995 5C3.83691 5 3.20103 4.73661 2.73219 4.26777C2.26334 3.79893 1.99995 3.16304 1.99995 2.5C1.99995 1.83696 2.26334 1.20107 2.73219 0.732233C3.20103 0.263392 3.83691 0 4.49995 0V0Z" fill="white"/>
</svg>
