<svg width="22" height="19" viewBox="0 0 22 19" fill="none" xmlns="http://www.w3.org/2000/svg">
<path d="M16.9062 1.62505C16.036 1.62505 15.2014 1.97075 14.5861 2.5861C13.9707 3.20146 13.625 4.03606 13.625 4.9063C13.625 5.08035 13.5559 5.24727 13.4328 5.37034C13.3097 5.49341 13.1428 5.56255 12.9687 5.56255C12.7947 5.56255 12.6278 5.49341 12.5047 5.37034C12.3816 5.24727 12.3125 5.08035 12.3125 4.9063C12.3125 3.99774 12.5819 3.10958 13.0867 2.35415C13.5915 1.59871 14.3089 1.00992 15.1483 0.662226C15.9877 0.314536 16.9113 0.223565 17.8024 0.400815C18.6935 0.578066 19.5121 1.01558 20.1545 1.65803C20.797 2.30047 21.2345 3.119 21.4117 4.0101C21.589 4.9012 21.498 5.82485 21.1503 6.66425C20.8026 7.50365 20.2138 8.22109 19.4584 8.72586C18.703 9.23063 17.8148 9.50005 16.9062 9.50005H1.15625C0.982202 9.50005 0.815282 9.43091 0.692211 9.30784C0.56914 9.18476 0.5 9.01785 0.5 8.8438C0.5 8.66975 0.56914 8.50283 0.692211 8.37976C0.815282 8.25669 0.982202 8.18755 1.15625 8.18755H16.9062C17.7765 8.18755 18.6111 7.84184 19.2264 7.22649C19.8418 6.61114 20.1875 5.77654 20.1875 4.9063C20.1875 4.03606 19.8418 3.20146 19.2264 2.5861C18.6111 1.97075 17.7765 1.62505 16.9062 1.62505V1.62505ZM7.71875 2.93755C7.37065 2.93755 7.03681 3.07583 6.79067 3.32197C6.54453 3.56811 6.40625 3.90195 6.40625 4.25005C6.40625 4.4241 6.33711 4.59102 6.21404 4.71409C6.09097 4.83716 5.92405 4.9063 5.75 4.9063C5.57595 4.9063 5.40903 4.83716 5.28596 4.71409C5.16289 4.59102 5.09375 4.4241 5.09375 4.25005C5.09375 3.73087 5.2477 3.22335 5.53614 2.79168C5.82458 2.36 6.23455 2.02354 6.71421 1.82486C7.19386 1.62618 7.72166 1.5742 8.23086 1.67549C8.74006 1.77677 9.20779 2.02678 9.5749 2.39389C9.94202 2.761 10.192 3.22874 10.2933 3.73794C10.3946 4.24714 10.3426 4.77494 10.1439 5.25459C9.94525 5.73425 9.6088 6.14422 9.17712 6.43265C8.74544 6.72109 8.23793 6.87505 7.71875 6.87505H1.15625C0.982202 6.87505 0.815282 6.80591 0.692211 6.68284C0.56914 6.55977 0.5 6.39285 0.5 6.2188C0.5 6.04475 0.56914 5.87783 0.692211 5.75476C0.815282 5.63169 0.982202 5.56255 1.15625 5.56255H7.71875C8.06685 5.56255 8.40069 5.42427 8.64683 5.17812C8.89297 4.93198 9.03125 4.59814 9.03125 4.25005C9.03125 3.90195 8.89297 3.56811 8.64683 3.32197C8.40069 3.07583 8.06685 2.93755 7.71875 2.93755V2.93755ZM0.5 11.4688C0.5 11.2947 0.56914 11.1278 0.692211 11.0048C0.815282 10.8817 0.982202 10.8125 1.15625 10.8125H14.3364C15.1151 10.8125 15.8764 11.0435 16.5239 11.4761C17.1714 11.9088 17.6761 12.5237 17.9741 13.2432C18.2722 13.9627 18.3501 14.7544 18.1982 15.5182C18.0463 16.282 17.6713 16.9836 17.1206 17.5343C16.5699 18.0849 15.8683 18.46 15.1045 18.6119C14.3407 18.7638 13.549 18.6858 12.8296 18.3878C12.1101 18.0898 11.4951 17.5851 11.0625 16.9376C10.6298 16.2901 10.3989 15.5288 10.3989 14.75C10.3989 14.576 10.468 14.4091 10.5911 14.286C10.7142 14.1629 10.8811 14.0938 11.0551 14.0938C11.2292 14.0938 11.3961 14.1629 11.5192 14.286C11.6422 14.4091 11.7114 14.576 11.7114 14.75C11.7114 15.2692 11.8653 15.7767 12.1538 16.2084C12.4422 16.6401 12.8522 16.9766 13.3318 17.1752C13.8115 17.3739 14.3393 17.4259 14.8485 17.3246C15.3577 17.2233 15.8254 16.9733 16.1925 16.6062C16.5596 16.2391 16.8096 15.7714 16.9109 15.2622C17.0122 14.753 16.9602 14.2252 16.7616 13.7455C16.5629 13.2658 16.2264 12.8559 15.7947 12.5674C15.3631 12.279 14.8555 12.125 14.3364 12.125H1.15625C0.982202 12.125 0.815282 12.0559 0.692211 11.9328C0.56914 11.8098 0.5 11.6428 0.5 11.4688Z" fill="white"/>
</svg>
